HIERARCHY
ROOT Hips
{
	OFFSET -0.001795 -0.223333 0.028219
	CHANNELS 6 Xposition Yposition Zposition Zrotation Yrotation Xrotation 
	JOINT LeftUpLeg
	{
		OFFSET 0.069520 -0.091406 -0.006815
		CHANNELS 3 Zrotation Yrotation Xrotation
		JOINT LeftLeg
		{
			OFFSET 0.034277 -0.375199 -0.004496
			CHANNELS 3 Zrotation Yrotation Xrotation
			JOINT LeftFoot
			{
				OFFSET -0.013596 -0.397961 -0.043693
				CHANNELS 3 Zrotation Yrotation Xrotation
				JOINT LeftToe
				{
					OFFSET 0.026358 -0.055791 0.119288
					CHANNELS 3 Zrotation Yrotation Xrotation
					End Site
					{
						OFFSET 0.000000 0.000000 0.000000
					}
				}
			}
		}
	}
	JOINT RightUpLeg
	{
		OFFSET -0.067670 -0.090522 -0.004320
		CHANNELS 3 Zrotation Yrotation Xrotation
		JOINT RightLeg
		{
			OFFSET -0.038290 -0.382569 -0.008850
			CHANNELS 3 Zrotation Yrotation Xrotation
			JOINT RightFoot
			{
				OFFSET 0.015774 -0.398415 -0.042312
				CHANNELS 3 Zrotation Yrotation Xrotation
				JOINT RightToe
				{
					OFFSET -0.025372 -0.048144 0.123348
					CHANNELS 3 Zrotation Yrotation Xrotation
					End Site
					{
						OFFSET 0.000000 0.000000 0.000000
					}
				}
			}
		}
	}
	JOINT Spine
	{
		OFFSET -0.002533 0.108963 -0.026696
		CHANNELS 3 Zrotation Yrotation Xrotation
		JOINT Spine1
		{
			OFFSET 0.005487 0.135180 0.001092
			CHANNELS 3 Zrotation Yrotation Xrotation
			JOINT Spine2
			{
				OFFSET 0.001457 0.052922 0.025425
				CHANNELS 3 Zrotation Yrotation Xrotation
				JOINT Neck
				{
					OFFSET -0.002778 0.213870 -0.042857
					CHANNELS 3 Zrotation Yrotation Xrotation
					JOINT Head
					{
						OFFSET 0.005152 0.064970 0.051349
						CHANNELS 3 Zrotation Yrotation Xrotation
						End Site
						{
							OFFSET 0.000000 0.000000 0.000000
						}
					}
				}
				JOINT LeftShoulder
				{
					OFFSET 0.078845 0.121749 -0.034090
					CHANNELS 3 Zrotation Yrotation Xrotation
					JOINT LeftArm
					{
						OFFSET 0.090977 0.030469 -0.008868
						CHANNELS 3 Zrotation Yrotation Xrotation
						JOINT LeftForeArm
						{
							OFFSET 0.259612 -0.012772 -0.027456
							CHANNELS 3 Zrotation Yrotation Xrotation
							JOINT LeftHand
							{
								OFFSET 0.249234 0.008986 -0.001171
								CHANNELS 3 Zrotation Yrotation Xrotation
								End Site
								{
									OFFSET 0.000000 0.000000 0.000000
								}
							}
						}
					}
				}
				JOINT RightShoulder
				{
					OFFSET -0.081759 0.118833 -0.038615
					CHANNELS 3 Zrotation Yrotation Xrotation
					JOINT RightArm
					{
						OFFSET -0.096012 0.032551 -0.009143
						CHANNELS 3 Zrotation Yrotation Xrotation
						JOINT RightForeArm
						{
							OFFSET -0.253742 -0.013329 -0.021401
							CHANNELS 3 Zrotation Yrotation Xrotation
							JOINT RightHand
							{
								OFFSET -0.255298 0.007772 -0.005559
								CHANNELS 3 Zrotation Yrotation Xrotation
								End Site
								{
									OFFSET 0.000000 0.000000 0.000000
								}
							}
						}
					}
				}
			}
		}
	}
}
MOTION
Frames: 10
Frame Time: 0.050000
-0.040322 0.964911 -0.032038 -0.834741 9.269158 8.979118 4.650101 -0.777494 -10.189055 -0.036999 0.125711 -3.842718 -3.361446 2.786876 17.666678 0.000000 0.000000 0.000000 -3.424846 0.976721 -14.193813 3.282697 -0.408533 -0.193262 -6.672113 -16.314500 22.266303 0.000000 0.000000 0.000000 0.997730 -2.157648 27.444366 7.259555 -0.843532 -25.217763 4.942830 4.224702 24.332585 -3.379122 4.766952 -36.958507 0.000000 0.000000 0.000000 3.469911 -25.391128 8.019410 30.675125 -71.623427 -29.954947 34.640327 -29.409935 -8.180369 0.000000 0.000000 0.000000 -19.103417 32.181651 5.418110 -9.551008 44.145181 -4.680119 -8.917608 -12.528982 0.904138 0.000000 0.000000 0.000000 
-0.042219 0.965023 -0.035690 -0.822532 11.234891 9.130844 5.166944 -0.836225 -10.962213 -0.196181 0.135512 -4.027652 -4.236873 2.168867 18.494472 0.000000 0.000000 0.000000 -3.564398 0.905463 -13.842864 3.357095 -0.437844 -1.013027 -7.363963 -16.989978 23.877680 0.000000 0.000000 0.000000 1.640591 -2.658772 28.785379 6.940661 -0.752010 -25.136781 5.841897 4.212516 23.689857 -4.509637 5.335745 -36.806142 0.000000 0.000000 0.000000 6.732068 -27.178239 8.149843 46.875767 -69.178435 -40.373830 30.008763 -19.253135 -4.447849 0.000000 0.000000 0.000000 -21.419404 33.231626 4.880213 -12.181104 42.256191 -4.985828 -4.157992 -14.330596 0.320652 0.000000 0.000000 0.000000 
-0.042879 0.964551 -0.038062 -0.790302 11.728956 9.360367 4.944413 -0.873045 -11.292821 0.079363 0.121944 -4.047006 -4.332025 2.266478 18.837735 0.000000 0.000000 0.000000 -3.712715 0.896612 -14.228551 3.523658 -0.462039 -1.050440 -7.582001 -17.229646 23.806564 0.000000 0.000000 0.000000 1.786544 -2.910365 30.025005 6.371002 -0.590114 -25.538696 7.091911 4.862001 23.662264 -5.151572 5.680537 -36.679820 0.000000 0.000000 0.000000 8.444418 -27.816351 8.134436 49.637972 -68.069824 -41.877362 30.138602 -16.833221 -3.900962 0.000000 0.000000 0.000000 -22.443624 34.184151 4.704694 -12.677421 40.449285 -4.705946 -2.541256 -14.692380 0.095942 0.000000 0.000000 0.000000 
-0.042769 0.963609 -0.040183 -0.491823 11.958979 9.795450 4.434403 -0.945416 -11.978920 0.062412 0.109858 -3.594827 -4.234570 2.414448 18.742031 0.000000 0.000000 0.000000 -4.115235 0.867472 -14.785086 3.714724 -0.488046 -1.227833 -7.542786 -17.119832 23.908279 0.000000 0.000000 0.000000 1.810999 -2.986214 30.358915 6.126020 -0.557777 -25.079705 7.816983 5.337267 23.569231 -5.965765 6.087614 -36.111848 0.000000 0.000000 0.000000 8.943313 -28.795466 8.338982 48.477523 -66.907386 -40.242933 31.034066 -16.479664 -3.972679 0.000000 0.000000 0.000000 -22.884369 34.884393 4.692160 -12.419744 39.271558 -4.386057 -2.942298 -14.814129 0.164313 0.000000 0.000000 0.000000 
-0.042140 0.962928 -0.042454 -0.289179 11.852852 10.231239 4.376964 -0.975706 -12.329972 -0.111305 0.124976 -3.823693 -4.046733 2.790329 19.028101 0.000000 0.000000 0.000000 -4.558185 0.843076 -15.495922 3.789255 -0.494534 -0.780810 -7.990904 -17.808303 23.735668 0.000000 0.000000 0.000000 2.373005 -3.288166 31.232594 5.689776 -0.450863 -25.231946 8.217149 6.157531 23.593922 -5.634620 6.056067 -35.131497 0.000000 0.000000 0.000000 8.282028 -29.263691 8.578207 45.370728 -67.008612 -38.300971 33.381922 -18.860304 -4.980280 0.000000 0.000000 0.000000 -22.772150 35.007312 4.763241 -11.993573 38.680738 -4.119700 -4.080440 -14.588823 0.342391 0.000000 0.000000 0.000000 
-0.041430 0.962196 -0.044766 0.147553 12.043731 10.864656 3.665139 -1.081329 -13.189464 -0.018408 0.107793 -3.376455 -3.513846 3.668061 19.174034 0.000000 0.000000 0.000000 -5.174085 0.783748 -16.200474 3.715708 -0.484874 -0.210970 -8.083799 -17.910735 23.556431 0.000000 0.000000 0.000000 2.499491 -3.373863 31.343624 6.095513 -0.559532 -24.838872 8.112872 6.607112 23.680815 -5.774257 6.203597 -34.114152 0.000000 0.000000 0.000000 7.249734 -29.366530 8.763183 42.548691 -66.933406 -36.377482 35.965610 -20.537902 -5.945119 0.000000 0.000000 0.000000 -23.266995 34.743193 4.546773 -11.974822 38.309859 -3.978184 -5.611456 -14.157867 0.565418 0.000000 0.000000 0.000000 
-0.041015 0.961837 -0.046585 0.427455 11.824803 11.101194 3.597936 -1.090002 -13.266007 -0.576011 0.143353 -3.654302 -3.118542 4.155016 19.076212 0.000000 0.000000 0.000000 -5.641778 0.738510 -16.611670 3.750109 -0.487234 0.267311 -8.199364 -18.138224 23.093883 0.000000 0.000000 0.000000 2.757460 -3.520047 31.880120 5.920537 -0.542249 -24.415349 7.946606 6.792095 23.496551 -5.054463 5.937294 -32.349133 0.000000 0.000000 0.000000 6.279821 -29.406693 8.904055 40.954700 -66.406708 -34.773266 36.785209 -21.942112 -6.541624 0.000000 0.000000 0.000000 -23.411712 34.696124 4.521487 -12.180917 37.581684 -3.931516 -6.502468 -12.960662 0.643618 0.000000 0.000000 0.000000 
-0.041092 0.961047 -0.047924 0.743491 12.106116 11.085096 3.390827 -1.106598 -13.298784 -0.645836 0.142029 -3.479614 -2.903528 4.488269 19.011933 0.000000 0.000000 0.000000 -6.062616 0.672890 -16.732853 3.850701 -0.504538 0.691147 -8.335133 -18.324707 22.524822 0.000000 0.000000 0.000000 3.022922 -3.687450 32.204986 6.065060 -0.592963 -24.028374 7.692497 6.568882 23.691647 -4.843182 5.856412 -31.264252 0.000000 0.000000 0.000000 5.482816 -29.276969 8.967980 40.654653 -66.223893 -34.362816 38.029742 -22.132393 -6.858742 0.000000 0.000000 0.000000 -23.678156 34.745640 4.424770 -11.871491 36.838632 -3.764579 -8.116782 -11.590201 0.790070 0.000000 0.000000 0.000000 
-0.041784 0.961188 -0.049074 0.841389 11.948255 10.820655 3.355036 -1.054283 -12.696206 -0.682164 0.153394 -3.889411 -2.788515 4.701964 19.210617 0.000000 0.000000 0.000000 -6.226332 0.647667 -16.261370 3.661493 -0.476854 0.649548 -8.254307 -18.236363 22.393751 0.000000 0.000000 0.000000 3.204583 -3.781245 32.560867 6.262245 -0.669701 -23.563692 7.265358 6.240894 23.695847 -4.405859 5.611440 -30.269988 0.000000 0.000000 0.000000 4.402195 -28.850682 8.973798 39.235566 -65.640999 -32.743357 39.208688 -22.342960 -7.200535 0.000000 0.000000 0.000000 -23.647607 34.591402 4.414479 -10.964068 36.588548 -3.578609 -10.398133 -9.156422 0.898645 0.000000 0.000000 0.000000 
-0.043122 0.961138 -0.050544 1.044747 11.470843 10.616888 3.293933 -1.031784 -12.466403 -0.714458 0.155428 -3.837063 -2.363359 5.200841 19.144999 0.000000 0.000000 0.000000 -6.407375 0.633744 -15.890090 3.660811 -0.472778 0.554528 -8.064935 -18.041981 22.201825 0.000000 0.000000 0.000000 3.167318 -3.687940 32.417363 6.259225 -0.704622 -23.153090 7.099911 6.080772 23.978375 -4.351829 5.548540 -29.511920 0.000000 0.000000 0.000000 4.097577 -28.178659 8.813970 39.214027 -66.343568 -33.134833 40.630081 -21.422224 -7.173750 0.000000 0.000000 0.000000 -23.209791 34.245972 4.487033 -8.912321 36.996996 -3.200548 -13.305142 -7.163552 1.025221 0.000000 0.000000 0.000000 
